<?xml version="1.0" encoding="UTF-8"?>
<svg version="1.1" viewBox="0 0 2048 836" width="1024" height="418" xmlns="http://www.w3.org/2000/svg">
<path transform="translate(0)" d="m0 0h2048v836h-2048z" fill="#FEFEFE"/>
<path transform="translate(331,225)" d="m0 0 5 1 14 8 25 16 21 13 17 11 9-2 29-12 38-16 9-3 6 1 6 5 2 4-2 11-12 41-9 34v6l16 21 11 13 9 11 16 17 6 9v7l-4 6-4 2-35 2h-15l6 12 14 22 11 17 13 21 16 26 12 19 17 28 13 21 15 24 13 20 5 11v11l-6 12-9 10-13 8-16 7-8 2h-11l-8-3-8-8-10-17-10-20-9-16-15-28-10-18-14-26-12-22-30-56-10-19v-2h-2l-2 6-14 23-8 12-3 2h-12l-5-4-5-11-9-24-11-28-7-21-46-12-33-9-10-3-3-4-1-9 5-7 20-15 15-12 14-11 13-11 4-3h2l-2-35-5-52v-7l5-5z" fill="#8758EE"/>
<path transform="translate(341,250)" d="m0 0 11 6 20 13 24 15 11 7 5 3 9-3 26-11 33-13 10-3-3 12-17 59-2 10 10 13 13 16 28 35 1 2-29 2-51 1-5 1-13 22-13 21-8 12-9 13h-2l-18-46-11-27-2-4-22-5-30-8-25-7 1-3 11-9 16-13 15-13 14-11 5-4 1-3-3-52-1-14z" fill="#FEFEFE"/>
<path transform="translate(779,333)" d="m0 0h23l13 21 14 22 11 18 14 23 17 28 12 20 7 11v2l2-1 4-8 11-17 19-32 12-19 34-56 7-12h26v168l-1 29h-27v-141l-11 19-16 27-14 22-16 26-18 30-9 14h-4l-13-22-39-63-17-28-9-15-4-7v128l-1 10h-28l-1-1 1-126z" fill="#8758EE"/>
<path transform="translate(1129,330)" d="m0 0 4 1 15 28 23 45 16 33 14 28 11 23 15 32 5 10h-12l-18-1-10-17-7-15v-3l-3 1h-104l-2 6-12 25-2 4h-31l2-6 19-40 23-45 14-29 35-70z" fill="#8758EE"/>
<path transform="translate(1509,333)" d="m0 0h19l9 10 12 14 9 11 9 10 9 11 12 14 9 10 9 11 11 12 7 8 9 10 9 11 8 10v2h2l-1-2v-85l1-57h28v197h-11l-8-2-8-8-9-11-11-12-9-11-13-14-9-11-13-14-9-11-7-7-7-8-9-10-7-8-11-13-2-2-1 142h-27z" fill="#8758EE"/>
<path transform="translate(1327,331)" d="m0 0h19l18 3 16 5 16 8 12 9 5 4-1 4-12 12-8 5-3-1v-2l-4-2-10-7-11-5-16-4h-21l-16 4-14 7-13 12-6 8-6 12-4 15v27l5 16 7 14 12 13 11 7 12 5 8 2 19 1 16-2 16-6 8-5h2l1-22h-49v-25h75v58l-7 7-16 11-16 7-16 4-7 1h-26l-18-4-13-5-11-6-11-9-10-10-8-11-7-12-6-18-2-11v-29l4-17 7-17 7-11 8-10 11-10 16-10 16-6 15-3z" fill="#8758EE"/>
<path transform="translate(1716,333)" d="m0 0h131v27h-103l1 60h61v26l-33 1h-28l-1 56 79-1h24v27l-104 1h-28v-185z" fill="#8758EE"/>
<path transform="translate(464,431)" d="m0 0 4 1 16 24 16 25 10 16 26 42 12 19 32 52 11 18 3 7-25 12-21 13h-2l-14-28-9-16-14-26-13-24-12-22-15-28-13-24-11-21-9-16 2-6 8-14 5-3z" fill="#FEFEFE"/>
<path transform="translate(713,333)" d="m0 0h28l-1 197h-27z" fill="#8758EE"/>
<path transform="translate(1444,333)" d="m0 0h27l1 196-1 1h-26l-1-36z" fill="#8758EE"/>
<path transform="translate(1131,384)" d="m0 0h2l5 13 14 29 20 40 1 3h-82l2-6 8-16 28-58z" fill="#FEFEFE"/>
<path transform="translate(224,278)" d="m0 0 10 2 37 11 25 7 1 3-3 16-49-14-26-7 3-11z" fill="#8758EE"/>
<path transform="translate(423,163)" d="m0 0 7 1 12 3-2 10-9 31-8 31-10-2-8-3 2-10 15-57z" fill="#8758EE"/>
<path transform="translate(326,437)" d="m0 0 11 7 3 2-2 6-8 17-12 22-11 20-5-1-12-5 2-5 10-20 13-23 10-19z" fill="#8758EE"/>
<path transform="translate(512,329)" d="m0 0h11l62 4-1 19-36-3-38-2 1-17z" fill="#8758EE"/>
<path transform="translate(594,653)" d="m0 0h6l5 5v6l-7 8-15 10-9 4h-8l-4-2-2-3 1-7 10-9 14-9z" fill="#FEFEFE"/>
</svg>
